<svg width="33" height="38" viewBox="0 0 33 38" fill="none" xmlns="http://www.w3.org/2000/svg">
<g id="SVG" clip-path="url(#clip0_1_704)">
<path id="Vector" d="M0.998901 3.03418H5.12011V23.6402H31.2211" stroke="#F9FFFB" stroke-width="1.77778" stroke-miterlimit="10" stroke-linecap="square"/>
<path id="Vector_2" d="M7.8679 33.2586C9.38529 33.2586 10.6153 32.0286 10.6153 30.5111C10.6153 28.9938 9.38529 27.7637 7.8679 27.7637C6.35051 27.7637 5.12042 28.9938 5.12042 30.5111C5.12042 32.0286 6.35051 33.2586 7.8679 33.2586Z" stroke="#F9FFFB" stroke-width="1.77778" stroke-miterlimit="10" stroke-linecap="square"/>
<path id="Vector_3" d="M28.472 33.2586C29.9894 33.2586 31.2195 32.0286 31.2195 30.5111C31.2195 28.9938 29.9894 27.7637 28.472 27.7637C26.9547 27.7637 25.7245 28.9938 25.7245 30.5111C25.7245 32.0286 26.9547 33.2586 28.472 33.2586Z" stroke="#F9FFFB" stroke-width="1.77778" stroke-miterlimit="10" stroke-linecap="square"/>
<path id="Vector_4" d="M31.2195 3.03418H10.6135V18.1453H31.2195V3.03418Z" stroke="#F9FFFB" stroke-width="1.77778" stroke-miterlimit="10" stroke-linecap="square"/>
<path id="Vector_5" d="M10.6135 8.52734H31.2195" stroke="#F9FFFB" stroke-width="1.77778" stroke-miterlimit="10" stroke-linecap="square"/>
</g>
<defs>
<clipPath id="clip0_1_704">
<rect width="32" height="37" fill="white" transform="translate(0.109985 0.0898438)"/>
</clipPath>
</defs>
</svg>
